<?xml version="1.0" encoding="UTF-8"?>
<svg version="1.1" xmlns="http://www.w3.org/2000/svg" width="200" height="200" viewBox="0 0 200 200"><defs><clipPath id="cc"><circle cx="100" cy="100" r="100"/></clipPath></defs><g clip-path="url(#cc)">
<path d="M0 0 C66 0 132 0 200 0 C200 66 200 132 200 200 C134 200 68 200 0 200 C0 134 0 68 0 0 Z " fill="#18B7BF" transform="translate(0,0)"/>
<path d="M0 0 C2.41772 2.16189568 4.75670599 4.37200123 7.05859375 6.65625 C7.94546875 7.501875 8.83234375 8.3475 9.74609375 9.21875 C10.50921875 10.023125 11.27234375 10.8275 12.05859375 11.65625 C12.56519531 12.15640625 13.07179687 12.6565625 13.59375 13.171875 C29.4421868 29.77843748 36.62719485 54.45324297 36.32421875 76.94921875 C35.75037005 84.95778376 34.08762712 92.89470487 32.05859375 100.65625 C31.39859375 100.65625 30.73859375 100.65625 30.05859375 100.65625 C30.03796875 101.8525 30.01734375 103.04875 29.99609375 104.28125 C28.72393304 115.50100068 21.33668957 125.45185107 14.05859375 133.65625 C11.05859375 132.65625 11.05859375 132.65625 9.82617188 130.62304688 C9.41818359 129.71619141 9.01019531 128.80933594 8.58984375 127.875 C8.11023193 126.82481689 7.63062012 125.77463379 7.13647461 124.69262695 C6.61577393 123.52562256 6.09507324 122.35861816 5.55859375 121.15625 C5.00318143 119.93201482 4.44658952 118.70831423 3.88891602 117.48510742 C2.97417162 115.47764745 2.06058403 113.4697078 1.15077209 111.46000671 C-1.49336629 105.62032871 -4.18167132 99.8017875 -6.8828125 93.98828125 C-7.30593719 93.07750824 -7.72906189 92.16673523 -8.16500854 91.22836304 C-9.02036647 89.38770011 -9.87584517 87.54709331 -10.73144531 85.70654297 C-12.7739235 81.31200146 -14.81374496 76.91623571 -16.8515625 72.51953125 C-17.38216026 71.37711723 -17.38216026 71.37711723 -17.92347717 70.21162415 C-20.00039217 65.7291709 -22.03275606 61.2292773 -24.02861023 56.71012878 C-32.27978954 37.75160002 -32.27978954 37.75160002 -48.30078125 25.47265625 C-54.74654058 23.47981054 -60.62169812 23.62654849 -66.69140625 26.65625 C-79.46001887 34.88894339 -84.51116107 50.12713912 -90.24427795 63.53372192 C-92.22479164 68.12916043 -94.37912134 72.60014541 -96.65625 77.0546875 C-101.01863876 85.68725389 -105.0270448 94.46605044 -109.00390625 103.28125 C-113.77573935 113.8531203 -118.66473742 124.32513119 -123.94140625 134.65625 C-140.46933059 118.27526306 -147.22384041 96.49210566 -147.44140625 73.59375 C-147.35323549 63.49700625 -146.09779212 54.24150457 -142.94140625 44.65625 C-142.73241699 44.00865723 -142.52342773 43.36106445 -142.30810547 42.69384766 C-136.74591512 26.00727661 -125.82661241 11.43704015 -111.94140625 0.65625 C-111.1421875 0.01945312 -110.34296875 -0.61734375 -109.51953125 -1.2734375 C-78.12570278 -25.3178437 -30.95916976 -24.66866116 0 0 Z " fill="#17BBC3" transform="translate(155.94140625,26.34375)"/>
<path d="M0 0 C0.68449219 0.56976562 1.36898437 1.13953125 2.07421875 1.7265625 C2.72777344 2.23445313 3.38132813 2.74234375 4.0546875 3.265625 C22.03520606 17.83666399 33.47815176 42.05118094 36.07421875 64.7265625 C37.83338907 94.73522728 30.08095726 119.94296899 10.07421875 142.7265625 C9.04167969 143.90412109 9.04167969 143.90412109 7.98828125 145.10546875 C-6.13042755 160.19516682 -28.99539878 171.46655519 -49.67041016 172.91943359 C-80.84372056 173.76167958 -104.43594477 166.52628053 -127.5859375 145.05859375 C-146.68533255 126.02296963 -155.10984106 101.21368421 -155.36328125 74.7265625 C-155.32473835 64.11815357 -154.52178158 54.73895558 -150.92578125 44.7265625 C-150.55195313 43.66953125 -150.178125 42.6125 -149.79296875 41.5234375 C-140.10590489 16.50386858 -121.39936706 -2.29126522 -97.3984375 -13.7734375 C-64.91133332 -27.80611242 -27.31349351 -22.26270387 0 0 Z M-115.92578125 2.7265625 C-116.52648437 3.22671875 -117.1271875 3.726875 -117.74609375 4.2421875 C-131.49427041 15.77987301 -141.33360105 29.6893338 -146.92578125 46.7265625 C-147.24337402 47.6865918 -147.24337402 47.6865918 -147.56738281 48.66601562 C-155.26190786 73.02997924 -151.5950057 99.22929186 -140.05957031 121.68164062 C-137.26193548 126.72750396 -134.00116361 131.62706545 -129.92578125 135.7265625 C-128.93578125 135.7265625 -127.94578125 135.7265625 -126.92578125 135.7265625 C-116.50186613 113.57633711 -116.50186613 113.57633711 -106.23828125 91.3515625 C-105.80563965 90.40539062 -105.37299805 89.45921875 -104.92724609 88.484375 C-104.05026744 86.56551573 -103.1734775 84.6465702 -102.296875 82.72753906 C-98.31514184 74.0125348 -94.32443892 65.30218022 -90.27441406 56.61865234 C-89.42402677 54.79503034 -88.5766072 52.97001872 -87.73339844 51.14306641 C-83.113316 41.17677103 -78.70738756 32.07722746 -68.15234375 27.390625 C-61.77733589 25.48930687 -55.79395498 25.98505476 -49.73828125 28.6640625 C-37.53270588 35.64418617 -32.56222987 48.45261394 -27.15234375 60.74609375 C-24.40568951 66.95655472 -21.48421371 73.08582866 -18.58432007 79.22570801 C-16.80927067 82.98409351 -15.0372965 86.74392749 -13.265625 90.50390625 C-12.90505508 91.26905548 -12.54448517 92.03420471 -12.17298889 92.82254028 C-7.87257626 101.95411592 -3.61091763 111.10376474 0.64404297 120.2565918 C1.45446045 121.99743042 1.45446045 121.99743042 2.28125 123.7734375 C2.75022705 124.78245117 3.2192041 125.79146484 3.70239258 126.83105469 C5.11768839 129.8183137 6.5856603 132.77521913 8.07421875 135.7265625 C16.08340547 132.47392335 20.33972771 122.0008619 23.91796875 114.64453125 C25.52717994 110.58344761 25.92920437 107.07699401 26.07421875 102.7265625 C26.73421875 102.7265625 27.39421875 102.7265625 28.07421875 102.7265625 C34.97983455 76.66763493 32.38225678 51.96465678 19.26171875 28.3515625 C15.54048212 22.0995998 11.18671379 16.87853627 6.07421875 11.7265625 C5.22859375 10.8396875 4.38296875 9.9528125 3.51171875 9.0390625 C2.30515625 7.894375 2.30515625 7.894375 1.07421875 6.7265625 C0.56246094 6.21996094 0.05070313 5.71335937 -0.4765625 5.19140625 C-19.30801479 -12.51096539 -43.29165064 -16.85677221 -68.25097656 -16.35791016 C-84.99174095 -15.82922227 -103.52292179 -8.57382056 -115.92578125 2.7265625 Z M-63.56640625 44.87890625 C-69.85015369 51.84898533 -73.1982682 60.22997294 -76.92578125 68.7265625 C-77.60456217 70.25300763 -78.28424574 71.77905169 -78.96484375 73.3046875 C-79.9394766 75.49106987 -80.91224566 77.67800072 -81.87280273 79.87060547 C-88.17327784 94.22045417 -95.03519872 108.32948666 -101.74536133 122.49072266 C-104.14906254 127.56456696 -106.544346 132.6422278 -108.92578125 137.7265625 C-109.37904785 138.69239258 -109.83231445 139.65822266 -110.29931641 140.65332031 C-111.98496334 144.32847122 -113.40272142 147.67284885 -113.92578125 151.7265625 C-89.35083815 166.43231302 -65.32123846 172.98790474 -36.83056641 166.22705078 C-25.85893261 163.34421955 -15.34540767 158.00631345 -5.92578125 151.7265625 C-6.47206233 145.99524062 -8.72641685 141.49807604 -11.23828125 136.4140625 C-12.80837503 133.18851563 -14.36900668 129.95855477 -15.92578125 126.7265625 C-16.32845215 125.9113916 -16.73112305 125.0962207 -17.14599609 124.25634766 C-17.52062988 123.46921387 -17.89526367 122.68208008 -18.28125 121.87109375 C-18.6218042 121.16960205 -18.9623584 120.46811035 -19.31323242 119.74536133 C-20.05274385 117.30812737 -19.86357709 116.07605702 -18.92578125 113.7265625 C-16.859375 112.2421875 -16.859375 112.2421875 -14.36328125 110.9765625 C-13.53699219 110.54859375 -12.71070313 110.120625 -11.859375 109.6796875 C-11.22128906 109.36515625 -10.58320313 109.050625 -9.92578125 108.7265625 C-13.49958467 107.53529469 -15.43461427 107.991618 -19.11328125 108.6640625 C-20.19996094 108.85871094 -21.28664063 109.05335938 -22.40625 109.25390625 C-23.23769531 109.40988281 -24.06914062 109.56585938 -24.92578125 109.7265625 C-25.07285522 108.71142578 -25.07285522 108.71142578 -25.22290039 107.67578125 C-26.08507933 104.05816347 -27.56933808 100.87274342 -29.171875 97.5390625 C-29.49870773 96.84762146 -29.82554047 96.15618042 -30.16227722 95.44378662 C-31.22362268 93.2019758 -32.29296837 90.96410425 -33.36328125 88.7265625 C-34.09652464 87.18668207 -34.82943346 85.64664228 -35.56201172 84.10644531 C-36.65789856 81.80283899 -37.75432094 79.49950232 -38.85321045 77.19732666 C-40.93942065 72.82245508 -42.98960925 68.43385612 -45 64.0234375 C-45.65947632 62.59064453 -45.65947632 62.59064453 -46.33227539 61.12890625 C-47.11619866 59.42252629 -47.89090558 57.71186607 -48.65405273 55.99609375 C-51.0286076 50.8808271 -53.54516184 47.33683676 -57.92578125 43.7265625 C-61.71438434 43.343383 -61.71438434 43.343383 -63.56640625 44.87890625 Z " fill="#3D4446" transform="translate(159.92578125,24.2734375)"/>
<path d="M0 0 C15.74104936 10.85127658 22.78818123 34.66356539 26.46875 52.23828125 C28.43559845 64.99547882 27.08137239 78.75588284 23 91 C22.43603516 91.02505615 21.87207031 91.0501123 21.29101562 91.07592773 C18.69385118 91.19318301 16.0969369 91.31531266 13.5 91.4375 C12.613125 91.47681641 11.72625 91.51613281 10.8125 91.55664062 C5.49384873 91.81084087 0.2743744 92.26676337 -5 93 C-4.29875 92.319375 -3.5975 91.63875 -2.875 90.9375 C-1.91168285 89.96323607 -0.95378843 88.98359431 0 88 C0.7734375 87.20335938 0.7734375 87.20335938 1.5625 86.390625 C7.84878331 79.53857619 9.64030464 73.19334173 9.3359375 63.8984375 C8.72526564 58.62961749 7.23041822 54.97551328 3.22265625 51.42578125 C-0.7374185 48.61611927 -4.94936903 46.52479777 -9.32958984 44.44677734 C-17.06223521 40.76640395 -22.51507959 37.05983796 -26 29 C-27.32839698 21.81267319 -25.0388905 15.90224336 -21 10 C-15.80311663 4.20514887 -8.20703541 -1.8423957 0 0 Z " fill="#F9FCFC" transform="translate(165,35)"/>
<path d="M0 0 C4.77515737 0.5657315 8.70745741 2.04252172 13.140625 3.8359375 C27.86056976 9.47973039 42.24016141 11.0693481 57.890625 8.4609375 C54.59727727 10.98265545 51.19407335 13.31461422 47.765625 15.6484375 C43.5583181 18.52130207 39.55176267 21.49985205 35.640625 24.7734375 C27.394259 31.38372449 21.04910811 33.15785543 10.36328125 32.84765625 C4.49726948 32.19441084 1.65650463 30.32227008 -2.421875 26.0234375 C-5.63541959 21.14361052 -6.40313516 17.23902077 -6.421875 11.3984375 C-6.43863281 10.19058594 -6.45539063 8.98273438 -6.47265625 7.73828125 C-5.92510766 2.79856867 -5.10034963 0.75608198 0 0 Z " fill="#F8FDFC" transform="translate(92.109375,123.5390625)"/>
<path d="M0 0 C1.58373689 2.37560533 2.72631349 4.44121656 3.875 7.01953125 C4.22046875 7.79490234 4.5659375 8.57027344 4.921875 9.36914062 C5.45554687 10.57860352 5.45554687 10.57860352 6 11.8125 C6.35578125 12.60720703 6.7115625 13.40191406 7.078125 14.22070312 C8.94268498 18.42639905 10.63885315 22.59754066 12 27 C11.01 26.34 10.02 25.68 9 25 C9 24.01 9 23.02 9 22 C8.01 21.67 7.02 21.34 6 21 C6.495 19.515 6.495 19.515 7 18 C6.46890625 18.47050781 5.9378125 18.94101563 5.390625 19.42578125 C4.68421875 20.04839844 3.9778125 20.67101562 3.25 21.3125 C2.55390625 21.92738281 1.8578125 22.54226562 1.140625 23.17578125 C-4.52034261 28 -4.52034261 28 -7 28 C-7.62841797 28.70576172 -7.62841797 28.70576172 -8.26953125 29.42578125 C-10.61673632 31.56104907 -12.57915391 31.71210589 -15.6875 32.1875 C-17.17830078 32.42533203 -17.17830078 32.42533203 -18.69921875 32.66796875 C-19.45847656 32.77753906 -20.21773437 32.88710937 -21 33 C-21.33 31.68 -21.66 30.36 -22 29 C-22.66 29 -23.32 29 -24 29 C-24 28.34 -24 27.68 -24 27 C-25.98 27 -27.96 27 -30 27 C-30.061875 25.8553125 -30.061875 25.8553125 -30.125 24.6875 C-30.77823609 21.67594887 -30.77823609 21.67594887 -34.0625 20.1875 C-35.031875 19.795625 -36.00125 19.40375 -37 19 C-37 18.67 -37 18.34 -37 18 C-36.36835937 18.00902344 -35.73671875 18.01804688 -35.0859375 18.02734375 C-20.7499387 17.5522314 -10.17153259 9.25870274 0 0 Z " fill="#106E73" transform="translate(138,139)"/>
<path d="M0 0 C5.28 0 10.56 0 16 0 C15.34 0.33 14.68 0.66 14 1 C13.9071875 2.8253125 13.9071875 2.8253125 13.8125 4.6875 C12.78074074 15.85896238 5.20879547 25.87372147 -2 34 C-5 33 -5 33 -6.44213867 30.49975586 C-6.9291626 29.41573486 -7.41618652 28.33171387 -7.91796875 27.21484375 C-8.71557617 25.46010742 -8.71557617 25.46010742 -9.52929688 23.66992188 C-10.08225808 22.42588205 -10.6349895 21.18174006 -11.1875 19.9375 C-11.75099114 18.68901849 -12.31543291 17.44096558 -12.88085938 16.19335938 C-14.26333674 13.13300351 -15.63587522 10.06856979 -17 7 C-16.01 7 -15.02 7 -14 7 C-13.67 6.01 -13.34 5.02 -13 4 C-8.60470084 2.01165038 -4.77962147 1.80881514 0 2 C0 1.34 0 0.68 0 0 Z " fill="#17AAB2" transform="translate(172,126)"/>
<path d="M0 0 C9.89875322 4.08241264 16.35007272 17.99637072 20.44140625 27.265625 C30.08908744 51.57202179 31.57886864 78.0652074 21.46850586 102.484375 C20.06558018 105.70229562 18.54766659 108.84876915 17 112 C16.54238281 112.97710937 16.08476562 113.95421875 15.61328125 114.9609375 C13.35827759 119.47094482 13.35827759 119.47094482 12 121 C10.34510854 121.38758629 8.67704739 121.72359282 7 122 C5.17662247 123.9568288 5.17662247 123.9568288 4 126 C3.34 125.67 2.68 125.34 2 125 C2.76183594 124.01773438 2.76183594 124.01773438 3.5390625 123.015625 C10.54671051 113.72458606 16.06882746 104.58703522 18 93 C18.66 93 19.32 93 20 93 C20.21546752 91.45581608 20.43054943 89.911578 20.64453125 88.3671875 C20.90716462 86.61822243 21.20098414 84.87387513 21.51171875 83.1328125 C25.94047354 57.4397528 20.0193817 33.71017611 6 12 C5.27425781 11.10023437 4.54851562 10.20046875 3.80078125 9.2734375 C1.81327464 6.76426429 1.42254421 5.12682717 1 2 C0.67 1.34 0.34 0.68 0 0 Z " fill="#474647" transform="translate(168,34)"/>
<path d="M0 0 C1.65 0.66 3.3 1.32 5 2 C5.296875 4.78125 5.296875 4.78125 5 8 C3.015625 9.90625 3.015625 9.90625 0.25 11.5 C-0.76320313 12.08523437 -1.77640625 12.67046875 -2.8203125 13.2734375 C-3.86960937 13.84320313 -4.91890625 14.41296875 -6 15 C-6.92554688 15.52851563 -7.85109375 16.05703125 -8.8046875 16.6015625 C-29.86392018 27.9770483 -56.438534 30.97927192 -79.45800781 24.34570312 C-89.22767617 21.20529894 -98.27334696 16.34217164 -107 11 C-106.67 9.35 -106.34 7.7 -106 6 C-105.40316406 6.35191406 -104.80632812 6.70382813 -104.19140625 7.06640625 C-80.09393556 20.78012285 -55.20734659 26.14881575 -28 19 C-19.69961631 16.46248069 -12.21138472 12.68855375 -4.6796875 8.453125 C-2 7 -2 7 1 6 C0.505 3.03 0.505 3.03 0 0 Z " fill="#334E52" transform="translate(153,170)"/>
<path d="M0 0 C1.54627671 2.31941506 2.86182828 4.52979752 4.125 7 C4.47820312 7.680625 4.83140625 8.36125 5.1953125 9.0625 C6 11 6 11 6 14 C-5.78847577 14.60974875 -16.63337526 11.52627959 -27.40649414 6.98193359 C-31.75553441 5.2101644 -35.31319146 4.45988452 -40 5 C-43.40059588 10.10089382 -42.53395034 16.04744253 -42 22 C-40.47018563 27.41636981 -37.77433022 30.93953191 -33 34 C-29.68455701 35.10514766 -26.79589889 35.32107631 -23.3125 35.5625 C-22.13300781 35.64628906 -20.95351562 35.73007813 -19.73828125 35.81640625 C-18.38283203 35.90728516 -18.38283203 35.90728516 -17 36 C-17 36.33 -17 36.66 -17 37 C-21.455 37.495 -21.455 37.495 -26 38 C-25.67 38.66 -25.34 39.32 -25 40 C-32.75 40.125 -32.75 40.125 -35 39 C-35 37.68 -35 36.36 -35 35 C-35.99 34.67 -36.98 34.34 -38 34 C-38 33.34 -38 32.68 -38 32 C-38.99 31.67 -39.98 31.34 -41 31 C-43.51647012 25.77348515 -45.1408611 21.41430314 -45.125 15.625 C-45.12757812 14.68914062 -45.13015625 13.75328125 -45.1328125 12.7890625 C-45.00208108 10.04370275 -44.78749221 7.63559532 -44 5 C-38.46169323 1.58274689 -33.37578767 1.65362924 -27 2 C-27 2.66 -27 3.32 -27 4 C-26.01 4.33 -25.02 4.66 -24 5 C-24 5.66 -24 6.32 -24 7 C-21.69 7 -19.38 7 -17 7 C-17 7.66 -17 8.32 -17 9 C-16.030625 8.95875 -15.06125 8.9175 -14.0625 8.875 C-9.55110276 8.85651067 -5.35162348 9.89482578 -1 11 C-0.12132271 7.26562152 0.08912219 3.83225427 0 0 Z " fill="#32ADB0" transform="translate(129,120)"/>
<path d="M0 0 C0.33 0.66 0.66 1.32 1 2 C0.38125 2.721875 -0.2375 3.44375 -0.875 4.1875 C-2.83666353 6.78381938 -3.95316 8.94671666 -5 12 C-5.66 12 -6.32 12 -7 12 C-7 12.99 -7 13.98 -7 15 C-7.66 15 -8.32 15 -9 15 C-9.33 17.31 -9.66 19.62 -10 22 C-10.66 22 -11.32 22 -12 22 C-11.95875 22.70125 -11.9175 23.4025 -11.875 24.125 C-12.01668332 27.38371628 -12.86734686 29.9559947 -14 33 C-14.66 33 -15.32 33 -16 33 C-16.88656686 41.90381159 -17.21286218 50.74192684 -17.25 59.6875 C-17.270625 60.94111328 -17.29125 62.19472656 -17.3125 63.48632812 C-17.3392023 69.831463 -17.11901869 75.23720658 -14.66577148 81.13769531 C-13.59128162 84.14327238 -13.79841682 86.84186354 -14 90 C-13.34 90 -12.68 90 -12 90 C-11.32942113 91.7902061 -10.6636531 93.58221489 -10 95.375 C-9.62875 96.37273437 -9.2575 97.37046875 -8.875 98.3984375 C-8 101 -8 101 -8 103 C-7.34 103 -6.68 103 -6 103 C-5.5875 103.928125 -5.175 104.85625 -4.75 105.8125 C-3.05370022 108.90218888 -2.10163394 110.40218858 1 112 C4.00388632 111.73495121 4.83304275 111.16695725 7 109 C6.43454163 112.95820859 5.19097652 115.6659053 3 119 C-12.08960714 105.28217533 -19.34756736 84.08509885 -20.37890625 64.12109375 C-20.74211128 51.92418444 -19.82190582 40.60629332 -16 29 C-15.79101074 28.35240723 -15.58202148 27.70481445 -15.36669922 27.03759766 C-12.13088591 17.33015773 -7.33972771 7.33972771 0 0 Z " fill="#34A7AE" transform="translate(29,42)"/>
<path d="M0 0 C3.60635504 0.90158876 5.44888354 1.75004105 8.5 3.6875 C12.31882508 6.06579195 16.15518217 8.0160342 20.25 9.875 C25.75310858 12.55927047 29.09131103 15.60800345 32 21 C33.04976964 24.14930893 33.10131595 26.38814456 33.0625 29.6875 C33.05347656 30.68136719 33.04445312 31.67523438 33.03515625 32.69921875 C33.02355469 33.45847656 33.01195312 34.21773437 33 35 C31.49440461 33.03617993 30.10868317 31.21736634 29 29 C28.34 29.66 27.68 30.32 27 31 C26.30710631 27.27569643 25.88855404 23.78916254 26 20 C25.05125 19.855625 24.1025 19.71125 23.125 19.5625 C20 19 20 19 18 18 C18 17.34 18 16.68 18 16 C16.68 16 15.36 16 14 16 C14 15.34 14 14.68 14 14 C13.360625 13.7525 12.72125 13.505 12.0625 13.25 C10 12 10 12 9.25 9.875 C9.1675 9.25625 9.085 8.6375 9 8 C5.95086772 6.98888907 5.95086772 6.98888907 3 8 C2.01 5.36 1.02 2.72 0 0 Z " fill="#1E7D80" transform="translate(142,72)"/>
<path d="M0 0 C1.58373689 2.37560533 2.72631349 4.44121656 3.875 7.01953125 C4.22046875 7.79490234 4.5659375 8.57027344 4.921875 9.36914062 C5.45554688 10.57860352 5.45554688 10.57860352 6 11.8125 C6.35578125 12.60720703 6.7115625 13.40191406 7.078125 14.22070312 C8.94268498 18.42639905 10.63885315 22.59754066 12 27 C11.01 26.34 10.02 25.68 9 25 C9 24.01 9 23.02 9 22 C8.01 21.67 7.02 21.34 6 21 C6.33 20.01 6.66 19.02 7 18 C6.20335937 18.70576172 6.20335937 18.70576172 5.390625 19.42578125 C4.68421875 20.04839844 3.9778125 20.67101562 3.25 21.3125 C2.55390625 21.92738281 1.8578125 22.54226562 1.140625 23.17578125 C-4.52034261 28 -4.52034261 28 -7 28 C-7.62841797 28.70576172 -7.62841797 28.70576172 -8.26953125 29.42578125 C-10.61673632 31.56104907 -12.57915391 31.71210589 -15.6875 32.1875 C-16.68136719 32.34605469 -17.67523438 32.50460938 -18.69921875 32.66796875 C-19.45847656 32.77753906 -20.21773438 32.88710937 -21 33 C-21.33 31.68 -21.66 30.36 -22 29 C-22.66 29 -23.32 29 -24 29 C-23.67 28.34 -23.34 27.68 -23 27 C-22.25234375 27.04640625 -21.5046875 27.0928125 -20.734375 27.140625 C-19.74953125 27.17671875 -18.7646875 27.2128125 -17.75 27.25 C-16.28820312 27.31960937 -16.28820312 27.31960937 -14.796875 27.390625 C-11.21821556 26.89081223 -10.39176166 25.63515032 -8 23 C-5.16461429 21.20733039 -2.27632741 19.54185048 0.63671875 17.87890625 C3.2243522 16.18593756 3.2243522 16.18593756 3.83203125 13.27734375 C3.88746094 12.52582031 3.94289062 11.77429688 4 11 C2.68 11.33 1.36 11.66 0 12 C-2.25245881 9.31158141 -3.88213958 7.35358125 -5 4 C-3.35 2.68 -1.7 1.36 0 0 Z " fill="#10888F" transform="translate(138,139)"/>
<path d="M0 0 C-2.87832832 2.87832832 -4.99985785 2.30140188 -9.02734375 2.37890625 C-9.73089493 2.39590073 -10.43444611 2.4128952 -11.15931702 2.43040466 C-13.41861882 2.48358655 -15.67790848 2.52374489 -17.9375 2.5625 C-20.88424066 2.62118468 -23.83081152 2.68557835 -26.77734375 2.75390625 C-27.48756683 2.76982819 -28.19778992 2.78575012 -28.92953491 2.80215454 C-34.64994898 2.94862732 -40.31496632 3.3599631 -46 4 C-46 3.01 -46 2.02 -46 1 C-30.25400118 -2.23785533 -15.90671955 -2.74507333 0 0 Z " fill="#464C4F" transform="translate(121,5)"/>
<path d="M0 0 C2.475 0.495 2.475 0.495 5 1 C4.50528444 6.82242164 2.7857097 11.05437021 0.0625 16.1875 C-0.29779297 16.88552734 -0.65808594 17.58355469 -1.02929688 18.30273438 C-1.71674863 19.633327 -2.4101619 20.96086317 -3.1105957 22.28466797 C-3.81993462 23.65272047 -4.47113675 25.05086884 -5.1015625 26.45703125 C-5.39804688 26.96621094 -5.69453125 27.47539062 -6 28 C-7.66500443 28.34153937 -9.33178677 28.67449498 -11 29 C-12.82337753 30.9568288 -12.82337753 30.9568288 -14 33 C-14.66 32.67 -15.32 32.34 -16 32 C-15.49210938 31.34515625 -14.98421875 30.6903125 -14.4609375 30.015625 C-7.45328949 20.72458606 -1.93117254 11.58703522 0 0 Z " fill="#384A4B" transform="translate(186,127)"/>
<path d="M0 0 C0.804375 0.99 1.60875 1.98 2.4375 3 C3.283125 3.99 4.12875 4.98 5 6 C5.99 6 6.98 6 8 6 C8.33 7.32 8.66 8.64 9 10 C3.555 13.96 3.555 13.96 -2 18 C-3.32 17.34 -4.64 16.68 -6 16 C-5.484375 15.649375 -4.96875 15.29875 -4.4375 14.9375 C-2.59853617 12.90531273 -2.59853617 12.90531273 -3.3125 9.3125 C-3.539375 8.219375 -3.76625 7.12625 -4 6 C-2.35 6.33 -0.7 6.66 1 7 C0.34 6.01 -0.32 5.02 -1 4 C-3.58380177 3.74969023 -3.58380177 3.74969023 -6 4 C-2.25 0 -2.25 0 0 0 Z " fill="#0C767A" transform="translate(134,144)"/>
<path d="M0 0 C-0.42152344 0.61488281 -0.84304687 1.22976562 -1.27734375 1.86328125 C-1.82519531 2.67152344 -2.37304688 3.47976562 -2.9375 4.3125 C-3.48277344 5.11300781 -4.02804688 5.91351563 -4.58984375 6.73828125 C-7.43143271 11.29584359 -7.64659044 15.77689284 -7 21 C-5.90668796 23.89321877 -4.56446928 26.31106843 -3 29 C-4.32 29 -5.64 29 -7 29 C-10.24571282 22.79081025 -10.66944259 16.94170563 -11 10 C-11.66 10 -12.32 10 -13 10 C-11.63016497 6.83884224 -11.0109362 6.0072908 -8 4 C-7.31731862 2.67479497 -6.6492959 1.34187818 -6 0 C-3.50907189 -1.24546405 -2.58919267 -0.7767578 0 0 Z " fill="#24B8C1" transform="translate(147,43)"/>
<path d="M0 0 C-1.16015625 0.65355469 -1.16015625 0.65355469 -2.34375 1.3203125 C-8.54596017 4.86662574 -14.42619211 8.52456013 -20 13 C-19.43125124 9.01875869 -18.12345246 6.38727672 -16 3 C-16.85464844 2.95101562 -17.70929688 2.90203125 -18.58984375 2.8515625 C-20.24693359 2.73941406 -20.24693359 2.73941406 -21.9375 2.625 C-23.03964844 2.55539063 -24.14179687 2.48578125 -25.27734375 2.4140625 C-26.17582031 2.27742187 -27.07429688 2.14078125 -28 2 C-28.33 1.34 -28.66 0.68 -29 0 C-28.08504761 0.00785522 -28.08504761 0.00785522 -27.15161133 0.01586914 C-24.37191815 0.03673335 -21.59224149 0.04969013 -18.8125 0.0625 C-17.85279297 0.07087891 -16.89308594 0.07925781 -15.90429688 0.08789062 C-14.97294922 0.09111328 -14.04160156 0.09433594 -13.08203125 0.09765625 C-12.22843018 0.10289307 -11.3748291 0.10812988 -10.49536133 0.11352539 C-7.95890512 0.06758975 -7.95890512 0.06758975 -5.36987305 -0.56860352 C-3 -1 -3 -1 0 0 Z " fill="#E3F8F8" transform="translate(150,133)"/>
<path d="M0 0 C1.58373689 2.37560533 2.72631349 4.44121656 3.875 7.01953125 C4.22046875 7.79490234 4.5659375 8.57027344 4.921875 9.36914062 C5.45554688 10.57860352 5.45554688 10.57860352 6 11.8125 C6.35578125 12.60720703 6.7115625 13.40191406 7.078125 14.22070312 C8.94268498 18.42639905 10.63885315 22.59754066 12 27 C11.01 26.34 10.02 25.68 9 25 C9 24.01 9 23.02 9 22 C8.01 21.67 7.02 21.34 6 21 C6.33 19.68 6.66 18.36 7 17 C6.34 17 5.68 17 5 17 C4.67 15.02 4.34 13.04 4 11 C2.68 11.33 1.36 11.66 0 12 C-2.25245881 9.31158141 -3.88213958 7.35358125 -5 4 C-3.35 2.68 -1.7 1.36 0 0 Z " fill="#20797B" transform="translate(138,139)"/>
<path d="M0 0 C1.125 3.75 1.125 3.75 0 6 C-0.66 6 -1.32 6 -2 6 C-1.67 6.66 -1.34 7.32 -1 8 C2.0399648 8.69337792 2.0399648 8.69337792 5.5625 9.125 C6.76003906 9.29257813 7.95757812 9.46015625 9.19140625 9.6328125 C10.11824219 9.75398438 11.04507813 9.87515625 12 10 C12 10.66 12 11.32 12 12 C10.40671875 12.09087891 10.40671875 12.09087891 8.78125 12.18359375 C-1.63715103 12.79270238 -1.63715103 12.79270238 -12 14 C-11.29875 13.319375 -10.5975 12.63875 -9.875 11.9375 C-4.28618547 6.45685811 -4.28618547 6.45685811 0 0 Z " fill="#E5FDFA" transform="translate(172,114)"/>
<path d="M0 0 C4.67406718 1.1685168 8.28006234 2.92700802 12 6 C13 8.8125 13 8.8125 13 11 C14.32 11.33 15.64 11.66 17 12 C17 12.66 17 13.32 17 14 C19.475 14.495 19.475 14.495 22 15 C22.33 15.99 22.66 16.98 23 18 C23.99 18.66 24.98 19.32 26 20 C20.25 19.125 20.25 19.125 18 18 C18 17.34 18 16.68 18 16 C16.68 16 15.36 16 14 16 C14 15.34 14 14.68 14 14 C13.360625 13.7525 12.72125 13.505 12.0625 13.25 C10 12 10 12 9.25 9.875 C9.1675 9.25625 9.085 8.6375 9 8 C5.95086772 6.98888907 5.95086772 6.98888907 3 8 C2.01 5.36 1.02 2.72 0 0 Z " fill="#1A9196" transform="translate(142,72)"/>
<path d="M0 0 C5.50062041 -0.19300422 9.70772542 0.26983331 15 2 C18.5110198 3.068675 21.85420664 3.19990657 25.515625 3.31640625 C26.76601562 3.35830078 28.01640625 3.40019531 29.3046875 3.44335938 C30.60664062 3.48267578 31.90859375 3.52199219 33.25 3.5625 C34.56742188 3.60568359 35.88484375 3.64886719 37.2421875 3.69335938 C40.49468788 3.79941917 43.74726392 3.90148024 47 4 C47 4.33 47 4.66 47 5 C32.25269504 7.08018178 12.99150965 8.66100643 0 0 Z " fill="#34A7AC" transform="translate(69,187)"/>
<path d="M0 0 C0.66 0 1.32 0 2 0 C0.62514741 4.39687158 -1.07848296 8.46935202 -3.0625 12.625 C-6.09678323 19.02906042 -9.0362932 25.47208497 -11.9375 31.9375 C-12.33912354 32.83227051 -12.74074707 33.72704102 -13.15454102 34.64892578 C-14.10387396 36.76557287 -15.05241388 38.88257044 -16 41 C-17.00798036 37.50785639 -16.91145375 36.05490068 -15.3125 32.75 C-14.93738281 31.96109375 -14.56226563 31.1721875 -14.17578125 30.359375 C-13.59376953 29.19148438 -13.59376953 29.19148438 -13 28 C-12.49533203 26.98679687 -12.49533203 26.98679687 -11.98046875 25.953125 C-11.65691406 25.30859375 -11.33335938 24.6640625 -11 24 C-10.33227366 22.66719703 -9.6656424 21.33384497 -9 20 C-8.62359375 19.25621094 -8.2471875 18.51242188 -7.859375 17.74609375 C-5.51872999 12.87524444 -4.54001583 9.40481394 -5 4 C-3.35 3.67 -1.7 3.34 0 3 C0 2.01 0 1.02 0 0 Z " fill="#32AAB0" transform="translate(69,76)"/>
<path d="M0 0 C4.44186557 5.1582955 4.44186557 5.1582955 5 9 C3.86706799 14.71090217 0.87926523 18.80619975 -3 23 C-4.21185923 19.36442231 -3.59260392 18.36216382 -2 15 C-1.67 14.67 -1.34 14.34 -1 14 C-1.185625 12.783125 -1.37125 11.56625 -1.5625 10.3125 C-2.12833264 6.38703608 -1.56858153 3.69078008 0 0 Z " fill="#18B4B9" transform="translate(170,99)"/>
<path d="M0 0 C3 1 3 1 4.69140625 3.7890625 C5.32743018 5.06162205 5.95009978 6.3409049 6.5625 7.625 C7.06608032 8.65983521 7.06608032 8.65983521 7.57983398 9.71557617 C10.69080894 16.19365761 13.64587126 22.74505844 16.5625 29.3125 C17.01633057 30.32070801 17.47016113 31.32891602 17.93774414 32.36767578 C18.35145264 33.31497559 18.76516113 34.26227539 19.19140625 35.23828125 C19.56467041 36.08430908 19.93793457 36.93033691 20.32250977 37.80200195 C21 40 21 40 20 43 C13.21258963 28.72014098 6.52315256 14.40288994 0 0 Z " fill="#32A7AC" transform="translate(123,64)"/>
<path d="M0 0 C0.99 0 1.98 0 3 0 C4.13955862 6.32589627 4.1142637 12.52278338 4.0625 18.9375 C4.05798828 20.00291016 4.05347656 21.06832031 4.04882812 22.16601562 C4.03711787 24.77740291 4.02071724 27.38867124 4 30 C3.34 30.33 2.68 30.66 2 31 C2 23.74 2 16.48 2 9 C1.34 9 0.68 9 0 9 C-0.33 9.66 -0.66 10.32 -1 11 C-1.0270043 9.54176788 -1.04639787 8.08339325 -1.0625 6.625 C-1.07410156 5.81289062 -1.08570313 5.00078125 -1.09765625 4.1640625 C-1 2 -1 2 0 0 Z " fill="#555356" transform="translate(192,82)"/>
<path d="M0 0 C0.33 0 0.66 0 1 0 C0.47472697 4.93756647 -0.65676434 9.24860858 -2.31640625 13.92578125 C-3.09253797 16.090882 -3.09253797 16.090882 -3.4375 18.8125 C-4.19071474 21.74166845 -5.75765399 23.04698896 -8 25 C-8.99 24.67 -9.98 24.34 -11 24 C-7.37 16.08 -3.74 8.16 0 0 Z " fill="#384643" transform="translate(43,136)"/>
<path d="M0 0 C0.33 0 0.66 0 1 0 C1 1.98 1 3.96 1 6 C0.34 6 -0.32 6 -1 6 C-0.01 7.485 -0.01 7.485 1 9 C0.9765625 11.26171875 0.9765625 11.26171875 0.625 13.6875 C0.51414062 14.49574219 0.40328125 15.30398437 0.2890625 16.13671875 C0.19367187 16.75160156 0.09828125 17.36648437 0 18 C1.2065625 18.433125 1.2065625 18.433125 2.4375 18.875 C5 20 5 20 6 22 C1.69235185 20.43358249 -2.06171464 18.31663844 -6 16 C-5.37183502 12.05050296 -4.1354471 8.80107972 -2.4375 5.1875 C-1.98246094 4.21167969 -1.52742188 3.23585937 -1.05859375 2.23046875 C-0.70925781 1.49441406 -0.35992187 0.75835937 0 0 Z " fill="#25B0B4" transform="translate(52,160)"/>
<path d="M0 0 C2.3429247 2.18134369 3.91286514 3.8083033 5.25 6.75 C6.11625 7.86375 6.11625 7.86375 7 9 C9.92912553 9.29787717 12.1288049 9.3150692 15 9 C15.75925781 8.92007813 16.51851562 8.84015625 17.30078125 8.7578125 C19.20420691 8.53467557 21.10280129 8.27102839 23 8 C23 8.66 23 9.32 23 10 C22.30132812 10.13277344 21.60265625 10.26554688 20.8828125 10.40234375 C19.97273438 10.57894531 19.06265625 10.75554687 18.125 10.9375 C17.22007812 11.11152344 16.31515625 11.28554687 15.3828125 11.46484375 C13.00043683 11.89963701 13.00043683 11.89963701 11 13 C10.34786708 15.02463255 10.34786708 15.02463255 10 17 C9.34 16.67 8.68 16.34 8 16 C8 15.34 8 14.68 8 14 C7.01 13.67 6.02 13.34 5 13 C3.61328125 10.56640625 3.61328125 10.56640625 2.3125 7.5625 C1.87550781 6.57378906 1.43851563 5.58507812 0.98828125 4.56640625 C0 2 0 2 0 0 Z " fill="#34B3BD" transform="translate(149,118)"/>
<path d="M0 0 C0.99 0 1.98 0 3 0 C1.61625046 4.40814726 -0.08163188 8.52740932 -2.0390625 12.7109375 C-2.32478119 13.32393707 -2.61049988 13.93693665 -2.90487671 14.56851196 C-3.80853068 16.50545216 -4.71668169 18.44024344 -5.625 20.375 C-6.24248725 21.69647456 -6.85967767 23.01808786 -7.4765625 24.33984375 C-8.98094748 27.56150664 -10.48937009 30.78125977 -12 34 C-13.11132812 30.27832031 -13.11132812 30.27832031 -12.109375 27.7734375 C-11.66078125 26.98195312 -11.2121875 26.19046875 -10.75 25.375 C-8.09024097 20.39628671 -6.4254938 15.44700883 -5 10 C-4.01 10 -3.02 10 -2 10 C-1.855625 8.72125 -1.71125 7.4425 -1.5625 6.125 C-1.29357254 3.74307106 -1.07773654 2.15547309 0 0 Z " fill="#30AAB3" transform="translate(49,117)"/>
<path d="M0 0 C4.2597105 1.40715751 6.91991422 3.45486711 10.1875 6.5 C11.04730469 7.2940625 11.90710938 8.088125 12.79296875 8.90625 C14.21251217 10.2529319 15.61640763 11.61640763 17 13 C15.80375 13.28875 14.6075 13.5775 13.375 13.875 C9.85273164 14.7524334 6.42798179 15.80020637 3 17 C3 16.01 3 15.02 3 14 C4.65 14 6.3 14 8 14 C8.33 12.02 8.66 10.04 9 8 C8.34 8 7.68 8 7 8 C7 7.34 7 6.68 7 6 C5.68 5.67 4.36 5.34 3 5 C3 4.34 3 3.68 3 3 C2.34 3 1.68 3 1 3 C0.67 2.01 0.34 1.02 0 0 Z " fill="#3BA8AF" transform="translate(148,22)"/>
<path d="M0 0 C-2 2.0625 -2 2.0625 -5 4 C-6.87380553 3.79976206 -8.74737387 3.586572 -10.60986328 3.29956055 C-15.19953773 2.7243276 -19.8187183 2.85694613 -24.4375 2.875 C-25.42298828 2.87113281 -26.40847656 2.86726562 -27.42382812 2.86328125 C-33.36354596 2.87115364 -39.10969007 3.23249323 -45 4 C-44.67 3.34 -44.34 2.68 -44 2 C-39.89571384 0.81374311 -35.75284369 0.80175685 -31.50390625 0.68359375 C-30.79274155 0.66281265 -30.08157684 0.64203156 -29.34886169 0.62062073 C-27.08683297 0.55559967 -24.82469113 0.49656819 -22.5625 0.4375 C-21.04621332 0.39425157 -19.52993708 0.35063538 -18.01367188 0.30664062 C-12.00824337 0.13681115 -6.00845358 -0.02732437 0 0 Z " fill="#2B5A5F" transform="translate(125,6)"/>
<path d="M0 0 C2.50704818 1.20338313 4.64562192 2.45330901 6.9375 4.0625 C12.10793847 7.11260515 18.14989363 6.82405695 24 7 C24 7.33 24 7.66 24 8 C19.545 8.495 19.545 8.495 15 9 C15.33 9.66 15.66 10.32 16 11 C8.25 11.125 8.25 11.125 6 10 C6 8.68 6 7.36 6 6 C5.01 5.67 4.02 5.34 3 5 C3 4.34 3 3.68 3 3 C2.01 2.67 1.02 2.34 0 2 C0 1.34 0 0.68 0 0 Z " fill="#27A0A3" transform="translate(88,149)"/>
<path d="M0 0 C1.2380014 3.57644848 0.74926071 6.33694766 0 10 C-0.99 10 -1.98 10 -3 10 C-3.33 11.98 -3.66 13.96 -4 16 C-4.66 16 -5.32 16 -6 16 C-6.11214844 16.70511719 -6.22429687 17.41023438 -6.33984375 18.13671875 C-7.06314908 21.27389512 -8.19457691 23.90127906 -9.5625 26.8125 C-10.01753906 27.78832031 -10.47257812 28.76414063 -10.94140625 29.76953125 C-11.29074219 30.50558594 -11.64007813 31.24164063 -12 32 C-12.66 32 -13.32 32 -14 32 C-12.71014121 27.84788314 -11.13446437 24.10234102 -9.125 20.25 C-6.76937114 15.63066925 -4.7006853 11.00180343 -2.859375 6.15625 C-2.01440691 4.03614824 -1.04956401 2.0254744 0 0 Z " fill="#30A7AA" transform="translate(79,102)"/>
<path d="M0 0 C1.32 0 2.64 0 4 0 C4.12375 1.010625 4.2475 2.02125 4.375 3.0625 C4.98085335 6.87937612 5.87193912 10.31500112 7 14 C7.66 14 8.32 14 9 14 C9.53394179 15.4117783 10.05165104 16.82970244 10.5625 18.25 C10.85253906 19.03890625 11.14257812 19.8278125 11.44140625 20.640625 C12.05384098 23.22741227 11.72332269 24.49494634 11 27 C10.66005005 26.22922119 10.66005005 26.22922119 10.31323242 25.44287109 C9.27282729 23.08624606 8.23018094 20.73061894 7.1875 18.375 C6.65286133 17.16263672 6.65286133 17.16263672 6.10742188 15.92578125 C4.55959255 12.43251507 2.99761423 8.99539773 1.23828125 5.6015625 C0 3 0 3 0 0 Z " fill="#243B3D" transform="translate(139,139)"/>
<path d="M0 0 C2.64 0 5.28 0 8 0 C7.01 0.495 7.01 0.495 6 1 C5.9175 2.258125 5.835 3.51625 5.75 4.8125 C5.22130736 11.23974387 2.07398959 16.44425735 -1 22 C-1.33 20.68 -1.66 19.36 -2 18 C-1.34 18 -0.68 18 0 18 C0 15.36 0 12.72 0 10 C0.66 10 1.32 10 2 10 C2.33 7.36 2.66 4.72 3 2 C2.01 1.34 1.02 0.68 0 0 Z " fill="#258A8E" transform="translate(180,126)"/>
<path d="M0 0 C1.59811523 0.00676758 1.59811523 0.00676758 3.22851562 0.01367188 C5.83990291 0.02538213 8.45117124 0.04178276 11.0625 0.0625 C11.0625 0.3925 11.0625 0.7225 11.0625 1.0625 C10.42223877 1.08231934 9.78197754 1.10213867 9.12231445 1.12255859 C6.2061472 1.21813601 3.29066428 1.32768214 0.375 1.4375 C-0.63240234 1.4684375 -1.63980469 1.499375 -2.67773438 1.53125 C-4.14243164 1.58925781 -4.14243164 1.58925781 -5.63671875 1.6484375 C-6.53221436 1.6798584 -7.42770996 1.7112793 -8.3503418 1.74365234 C-11.16196044 2.09016305 -13.33648054 2.9682338 -15.9375 4.0625 C-18.20046407 4.34371242 -20.47380662 4.54954889 -22.75 4.6875 C-24.49216797 4.79964844 -24.49216797 4.79964844 -26.26953125 4.9140625 C-27.59017578 4.98753906 -27.59017578 4.98753906 -28.9375 5.0625 C-20.43681341 -0.60462439 -9.81197385 -0.07917794 0 0 Z " fill="#32AAB0" transform="translate(100.9375,7.9375)"/>
<path d="M0 0 C0.33 0 0.66 0 1 0 C1.01458252 0.74048584 1.02916504 1.48097168 1.04418945 2.24389648 C1.11927222 5.64225413 1.21573281 9.0396934 1.3125 12.4375 C1.34633789 14.18450195 1.34633789 14.18450195 1.38085938 15.96679688 C1.57226752 22.14405979 2.03035926 27.39885386 4.46557617 33.11743164 C5.11751301 35.41395286 4.74718463 36.76528105 4 39 C0.60061907 32.79243483 -0.13106038 27.52267894 -0.09765625 20.5078125 C-0.09443359 19.30898437 -0.09121094 18.11015625 -0.08789062 16.875 C-0.07951172 15.6375 -0.07113281 14.4 -0.0625 13.125 C-0.05798828 11.86429688 -0.05347656 10.60359375 -0.04882812 9.3046875 C-0.0370796 6.20307614 -0.02065167 3.10156275 0 0 Z " fill="#2DB0BA" transform="translate(10,90)"/>
<path d="M0 0 C1.58357459 0.31127516 3.16684993 0.62407289 4.75 0.9375 C5.63171875 1.11152344 6.5134375 1.28554687 7.421875 1.46484375 C9.63235053 1.92368488 11.81512068 2.43336074 14 3 C14 3.66 14 4.32 14 5 C16.97 5.495 16.97 5.495 20 6 C20 6.66 20 7.32 20 8 C13.55016941 7.52223477 7.73482217 6.09126102 2 3 C1.34 2.01 0.68 1.02 0 0 Z " fill="#494B4B" transform="translate(61,187)"/>
<path d="M0 0 C0.33 0.66 0.66 1.32 1 2 C2.32 2 3.64 2 5 2 C6.81640625 4.23046875 6.81640625 4.23046875 8.5625 7.1875 C9.14128906 8.15042969 9.72007813 9.11335937 10.31640625 10.10546875 C11.14978516 11.53826172 11.14978516 11.53826172 12 13 C12.99866153 14.66746902 13.99820943 16.33440899 15 18 C12.12208417 16.90837675 11.12817914 16.22292024 9.5625 13.5 C8.22421869 10.79516621 8.22421869 10.79516621 5.5 10.0625 C3 9 3 9 1.1875 6.0625 C0 3 0 3 0 0 Z " fill="#35484B" transform="translate(15,142)"/>
<path d="M0 0 C0.928125 0.495 1.85625 0.99 2.8125 1.5 C-0.1875 2.5 -0.1875 2.5 -2.375 1.5625 C-6.060291 0.17027896 -9.33611044 -0.21374375 -13.1875 0.5 C-16.99607908 2.3005409 -20.21209078 4.52459078 -23.1875 7.5 C-25.3125 7.125 -25.3125 7.125 -27.1875 6.5 C-19.12065258 -0.60650844 -10.64316854 -4.54281584 0 0 Z " fill="#275557" transform="translate(109.1875,51.5)"/>
<path d="M0 0 C10.395 0.99 10.395 0.99 21 2 C21 2.33 21 2.66 21 3 C16.6041806 3.02907584 12.20838601 3.0468244 7.8125 3.0625 C6.56662109 3.07087891 5.32074219 3.07925781 4.03710938 3.08789062 C2.2340332 3.09272461 2.2340332 3.09272461 0.39453125 3.09765625 C-0.71043701 3.10289307 -1.81540527 3.10812988 -2.95385742 3.11352539 C-5.75799379 3.00901923 -8.27417329 2.64097959 -11 2 C-11 1.67 -11 1.34 -11 1 C-7.37 1 -3.74 1 0 1 C0 0.67 0 0.34 0 0 Z " fill="#505254" transform="translate(92,194)"/>
<path d="M0 0 C3 1 3 1 4.16796875 3.28515625 C4.50441406 4.20167969 4.84085938 5.11820313 5.1875 6.0625 C5.53167969 6.98160156 5.87585938 7.90070313 6.23046875 8.84765625 C6.48441406 9.55792969 6.73835937 10.26820313 7 11 C7.61875 10.175 8.2375 9.35 8.875 8.5 C9.57625 7.675 10.2775 6.85 11 6 C11.66 6 12.32 6 13 6 C13.33 4.35 13.66 2.7 14 1 C14.66 1 15.32 1 16 1 C15.39665691 4.70503641 13.77525763 6.85968148 11.4375 9.75 C10.79683594 10.54921875 10.15617188 11.3484375 9.49609375 12.171875 C9.00238281 12.77515625 8.50867188 13.3784375 8 14 C5 13 5 13 3.61328125 10.56640625 C2.96939453 9.07947266 2.96939453 9.07947266 2.3125 7.5625 C1.87550781 6.57378906 1.43851563 5.58507812 0.98828125 4.56640625 C0 2 0 2 0 0 Z " fill="#33A5AB" transform="translate(162,146)"/>
<path d="M0 0 C2.70329311 3.29590691 4.41900085 6.75613519 6.1875 10.625 C6.71730469 11.77226563 7.24710938 12.91953125 7.79296875 14.1015625 C9 17 9 17 9 19 C7.68 18.67 6.36 18.34 5 18 C5 18.66 5 19.32 5 20 C3.35 20.33 1.7 20.66 0 21 C1.32 20.34 2.64 19.68 4 19 C4 18.34 4 17.68 4 17 C4.66 17 5.32 17 6 17 C4.47444034 12.18877153 4.47444034 12.18877153 1 9 C0.5859375 6.93359375 0.5859375 6.93359375 0.375 4.4375 C0.30023438 3.61121094 0.22546875 2.78492187 0.1484375 1.93359375 C0.09945312 1.29550781 0.05046875 0.65742187 0 0 Z " fill="#395A5B" transform="translate(146,114)"/>
<path d="M0 0 C2.00937326 2.00937326 2.66342772 3.24380501 3.75 5.8125 C5.99097567 11.02446614 8.40449003 16.14811628 10.828125 21.27734375 C12 24 12 24 12 26 C11.34 26 10.68 26 10 26 C9.34 25.01 8.68 24.02 8 23 C7.67 23 7.34 23 7 23 C6.773125 21.906875 6.54625 20.81375 6.3125 19.6875 C5.16561646 14.99113746 3.15911309 10.83635597 1.0234375 6.515625 C0 4 0 4 0 0 Z " fill="#29555B" transform="translate(130,79)"/>
<path d="M0 0 C1.670625 0.061875 1.670625 0.061875 3.375 0.125 C3.375 0.785 3.375 1.445 3.375 2.125 C1.17067015 2.97049638 -1.03748533 3.80142814 -3.25 4.625 C-5.09464844 5.32109375 -5.09464844 5.32109375 -6.9765625 6.03125 C-10.43542866 7.06816919 -13.04685036 7.34519382 -16.625 7.125 C-13.24396433 4.14968861 -9.91323777 3.31617716 -5.625 2.125 C-3.625 0.125 -3.625 0.125 0 0 Z " fill="#3E3F42" transform="translate(136.625,186.875)"/>
<path d="M0 0 C0.99 1.32 1.98 2.64 3 4 C1.8125 6.9375 1.8125 6.9375 0 10 C-2.5 10.625 -2.5 10.625 -5 11 C-6.82337753 12.9568288 -6.82337753 12.9568288 -8 15 C-8.66 14.67 -9.32 14.34 -10 14 C-9.16855469 12.86111328 -9.16855469 12.86111328 -8.3203125 11.69921875 C-7.59585938 10.70535156 -6.87140625 9.71148437 -6.125 8.6875 C-5.40570313 7.70136719 -4.68640625 6.71523437 -3.9453125 5.69921875 C-2.5944065 3.82476885 -1.28164671 1.92247007 0 0 Z " fill="#325255" transform="translate(180,145)"/>
<path d="M0 0 C0 0.66 0 1.32 0 2 C-3.91343237 5.82025541 -6.38074374 7.59862455 -12 8 C-12 8.66 -12 9.32 -12 10 C-12.99 10 -13.98 10 -15 10 C-15 11.65 -15 13.3 -15 15 C-15.99 15 -16.98 15 -18 15 C-16.024 8.16 -16.024 8.16 -13 6 C-11.576875 5.5359375 -11.576875 5.5359375 -10.125 5.0625 C-6.46189918 3.81704572 -3.70444563 0 0 0 Z " fill="#3A4544" transform="translate(94,53)"/>
<path d="M0 0 C0.66 0 1.32 0 2 0 C-0.33937611 7.66795502 -3.54768806 14.77137274 -7 22 C-7.33 22 -7.66 22 -8 22 C-8 20.02 -8 18.04 -8 16 C-7.34 16 -6.68 16 -6 16 C-6 14.35 -6 12.7 -6 11 C-5.34 10.67 -4.68 10.34 -4 10 C-2.86897474 7.65961814 -2.86897474 7.65961814 -1.875 4.9375 C-1.52179688 4.01839844 -1.16859375 3.09929687 -0.8046875 2.15234375 C-0.40636719 1.08693359 -0.40636719 1.08693359 0 0 Z " fill="#2B5055" transform="translate(87,80)"/>
<path d="M0 0 C1.32 0.66 2.64 1.32 4 2 C3.61328125 2.42410156 3.2265625 2.84820312 2.828125 3.28515625 C-0.7394097 7.30304806 -3.48173429 11.25403771 -6 16 C-7.15957207 12.52128379 -6.77456651 11.65780355 -5.5625 8.3125 C-5.27503906 7.50425781 -4.98757812 6.69601563 -4.69140625 5.86328125 C-4.46324219 5.24839844 -4.23507813 4.63351563 -4 4 C-3.34 4 -2.68 4 -2 4 C-2 3.34 -2 2.68 -2 2 C-1.34 2 -0.68 2 0 2 C0 1.34 0 0.68 0 0 Z " fill="#29B0B5" transform="translate(80,55)"/>
<path d="M0 0 C0.66 0 1.32 0 2 0 C1.96519531 1.71896484 1.96519531 1.71896484 1.9296875 3.47265625 C1.91091521 5.0025976 1.89271659 6.53254606 1.875 8.0625 C1.85824219 8.81466797 1.84148437 9.56683594 1.82421875 10.34179688 C1.78134879 15.29327709 2.41600625 19.30414451 4 24 C3.01 23.67 2.02 23.34 1 23 C-2.01037932 15.71171322 -1.71544482 7.60285146 0 0 Z " fill="#41B5BC" transform="translate(85,125)"/>
<path d="M0 0 C0.66 0 1.32 0 2 0 C6 5.41176471 6 5.41176471 6 8 C6.99 7.67 7.98 7.34 9 7 C9.33 7.99 9.66 8.98 10 10 C8.68 11.32 7.36 12.64 6 14 C1.92571429 7.16571429 1.92571429 7.16571429 1 3 C0.34 2.34 -0.32 1.68 -1 1 C-0.67 0.67 -0.34 0.34 0 0 Z " fill="#1CB5C1" transform="translate(163,144)"/>
<path d="M0 0 C2.70329311 3.29590691 4.41900085 6.75613519 6.1875 10.625 C6.71730469 11.77226563 7.24710937 12.91953125 7.79296875 14.1015625 C9 17 9 17 9 19 C8.34 19 7.68 19 7 19 C6.67 17.68 6.34 16.36 6 15 C4.68 14.67 3.36 14.34 2 14 C2.33 11.69 2.66 9.38 3 7 C2.34 7 1.68 7 1 7 C0.67 4.69 0.34 2.38 0 0 Z " fill="#2DA9B1" transform="translate(111,82)"/>
<path d="M0 0 C0.99828099 3.12214056 1.12380858 3.72880026 -0.3125 6.875 C-0.869375 7.90625 -1.42625 8.9375 -2 10 C-2.33 11.010625 -2.66 12.02125 -3 13.0625 C-4.01411627 16.04146656 -5.18658382 18.43099374 -7 21 C-7.66 21 -8.32 21 -9 21 C-7.50640515 16.15713185 -5.54966433 11.68649104 -3.375 7.125 C-2.88773438 6.09246094 -2.88773438 6.09246094 -2.390625 5.0390625 C-1.59676528 3.35794781 -0.79880442 1.67877079 0 0 Z " fill="#33A5AF" transform="translate(62,139)"/>
<path d="M0 0 C0.33 0 0.66 0 1 0 C1.66 8.58 2.32 17.16 3 26 C1 25 1 25 0 22 C-0.08178114 20.29983156 -0.10749501 18.59663703 -0.09765625 16.89453125 C-0.09443359 15.91162109 -0.09121094 14.92871094 -0.08789062 13.91601562 C-0.07951172 12.89185547 -0.07113281 11.86769531 -0.0625 10.8125 C-0.05798828 9.77673828 -0.05347656 8.74097656 -0.04882812 7.67382812 C-0.0370401 5.11582734 -0.02058515 2.55794267 0 0 Z " fill="#363A3A" transform="translate(5,91)"/>
<path d="M0 0 C0.33 0 0.66 0 1 0 C1 1.65 1 3.3 1 5 C0.34 5 -0.32 5 -1 5 C-0.91227545 6.89666526 -0.80408699 8.79238993 -0.6875 10.6875 C-0.62949219 11.74324219 -0.57148438 12.79898438 -0.51171875 13.88671875 C0.03860018 17.23484234 1.2229119 19.15765461 3 22 C2.67 22.66 2.34 23.32 2 24 C-1.69317421 19.1593038 -3.71796941 15.36094943 -3.375 9.1875 C-2.79162205 5.78446198 -1.56755663 3.06979839 0 0 Z " fill="#D0FAFB" transform="translate(142,48)"/>
<path d="M0 0 C-0.33 1.32 -0.66 2.64 -1 4 C-5.79300133 5.39151652 -10.15135782 4.68662689 -15 4 C-15 3.67 -15 3.34 -15 3 C-13.01432292 2.51171875 -11.02864583 2.0234375 -9.04296875 1.53515625 C-3.18248175 0 -3.18248175 0 0 0 Z " fill="#166263" transform="translate(121,154)"/>
<path d="M0 0 C0.33 0.66 0.66 1.32 1 2 C-0.07335699 4.76674582 -1.20260061 7.43194258 -2.4375 10.125 C-2.77587891 10.87910156 -3.11425781 11.63320312 -3.46289062 12.41015625 C-4.30160601 14.27659331 -5.14991393 16.1387143 -6 18 C-6.33 18 -6.66 18 -7 18 C-7 15.36 -7 12.72 -7 10 C-6.34 10 -5.68 10 -5 10 C-5.1546875 8.9171875 -5.1546875 8.9171875 -5.3125 7.8125 C-4.87550935 3.87958411 -2.89917803 2.53678077 0 0 Z " fill="#2C4F52" transform="translate(63,134)"/>
<path d="M0 0 C4.875 1.75 4.875 1.75 6 4 C6.04022391 6.3329866 6.04320247 8.66706666 6 11 C5.01 10.01 4.02 9.02 3 8 C2.34 8.66 1.68 9.32 1 10 C0.37542727 6.56484998 0 3.50935186 0 0 Z " fill="#13979D" transform="translate(168,93)"/>
<path d="M0 0 C0.99 0.33 1.98 0.66 3 1 C0.61820737 4.74281699 -1.74475735 7.97727468 -5 11 C-6.5 9.625 -6.5 9.625 -8 8 C-8 7.34 -8 6.68 -8 6 C-7.236875 5.7525 -6.47375 5.505 -5.6875 5.25 C-2.7635955 3.89004442 -1.69995644 2.68414174 0 0 Z " fill="#42494C" transform="translate(176,154)"/>
<path d="M0 0 C0.66 0.33 1.32 0.66 2 1 C1.525625 2.155 1.05125 3.31 0.5625 4.5 C-1.02208768 8.68570332 -1.60289195 12.55238986 -2 17 C-1.34 17 -0.68 17 0 17 C0 18.98 0 20.96 0 23 C-3.53712381 19.46287619 -3.18976528 15.846141 -3.25 11.0625 C-3.27578125 9.83660156 -3.3015625 8.61070312 -3.328125 7.34765625 C-2.98411309 3.83791565 -2.39191544 2.51151121 0 0 Z " fill="#D4FBFC" transform="translate(89,124)"/>
<path d="M0 0 C0.33 0.66 0.66 1.32 1 2 C0.67 2.66 0.34 3.32 0 4 C5.61 4 11.22 4 17 4 C17 4.33 17 4.66 17 5 C15.40671875 5.09087891 15.40671875 5.09087891 13.78125 5.18359375 C3.36284897 5.79270238 3.36284897 5.79270238 -7 7 C-4.66666667 4.66666667 -2.33333333 2.33333333 0 0 Z " fill="#B1EAEC" transform="translate(167,121)"/>
<path d="M0 0 C0.33 0 0.66 0 1 0 C1.67055285 2.93666226 2.33659053 5.87422359 3 8.8125 C3.19078125 9.64587891 3.3815625 10.47925781 3.578125 11.33789062 C3.75859375 12.14033203 3.9390625 12.94277344 4.125 13.76953125 C4.29257813 14.50792236 4.46015625 15.24631348 4.6328125 16.00708008 C5 18 5 18 5 21 C4.34 21 3.68 21 3 21 C2.34 19.35 1.68 17.7 1 16 C0.34 16.33 -0.32 16.66 -1 17 C-1 16.01 -1 15.02 -1 14 C-0.01 14 0.98 14 2 14 C1.34 13.01 0.68 12.02 0 11 C-0.1953125 8.30078125 -0.1953125 8.30078125 -0.125 5.3125 C-0.10695313 4.31863281 -0.08890625 3.32476562 -0.0703125 2.30078125 C-0.04710937 1.54152344 -0.02390625 0.78226562 0 0 Z " fill="#2E5B60" transform="translate(9,112)"/>
<path d="M0 0 C0.99 0.66 1.98 1.32 3 2 C1.10688354 7.7789871 -0.87231375 11.53763648 -5 16 C-6 13 -6 13 -5.25 10.375 C-4 8 -4 8 -1 7 C-0.26676204 4.98491642 -0.26676204 4.98491642 0 3 C-0.66 3 -1.32 3 -2 3 C-2 2.34 -2 1.68 -2 1 C-1.34 0.67 -0.68 0.34 0 0 Z " fill="#3AB2B7" transform="translate(172,106)"/>
<path d="M0 0 C0.33 0 0.66 0 1 0 C1 3.3 1 6.6 1 10 C0.01 10.33 -0.98 10.66 -2 11 C-2 12.32 -2 13.64 -2 15 C-2.66 15 -3.32 15 -4 15 C-3.50341703 9.33895411 -2.45489316 5.12325529 0 0 Z " fill="#4C4F50" transform="translate(10,68)"/>
<path d="M0 0 C1.1700097 3.91736581 0.69584017 6.97959015 0 11 C-1.32 11.33 -2.64 11.66 -4 12 C-4 13.32 -4 14.64 -4 16 C-4.99 16.33 -5.98 16.66 -7 17 C-5.1668733 11.00067626 -2.92678249 5.55079437 0 0 Z " fill="#295556" transform="translate(59,102)"/>
<path d="M0 0 C0.33 0 0.66 0 1 0 C1.02578125 0.556875 1.0515625 1.11375 1.078125 1.6875 C1.52373169 7.68293548 3.05072502 11.76741536 6 17 C4.68 17 3.36 17 2 17 C-0.77133606 11.57280022 -1.68096227 7.10246958 -1 1 C-0.67 0.67 -0.34 0.34 0 0 Z " fill="#39B1B4" transform="translate(138,55)"/>
<path d="M0 0 C0 2.97 0 5.94 0 9 C-0.99 9 -1.98 9 -3 9 C-4.6875 7 -4.6875 7 -6 5 C-1.125 0 -1.125 0 0 0 Z " fill="#13848A" transform="translate(139,139)"/>
<path d="M0 0 C1.33869714 2.67739429 0.58882975 4.28037612 -0.25390625 7.046875 C-1.48161696 10.26077738 -3.20558999 13.06913031 -5 16 C-5.66 16 -6.32 16 -7 16 C-5.35433477 10.31497465 -2.70967216 5.23318364 0 0 Z " fill="#2B5358" transform="translate(75,68)"/>
<path d="M0 0 C0.99 0 1.98 0 3 0 C1.43632643 3.52238047 -0.69495889 6.27123994 -3.125 9.25 C-3.84945313 10.14203125 -4.57390625 11.0340625 -5.3203125 11.953125 C-5.87460937 12.62859375 -6.42890625 13.3040625 -7 14 C-8 11 -8 11 -6.6875 8.3125 C-6.130625 7.549375 -5.57375 6.78625 -5 6 C-4.34 6 -3.68 6 -3 6 C-3 5.01 -3 4.02 -3 3 C-2.01 3 -1.02 3 0 3 C0 2.01 0 1.02 0 0 Z " fill="#2B4F54" transform="translate(33,33)"/>
<path d="M0 0 C-1.62170379 1.00533667 -3.24747237 2.00411907 -4.875 3 C-6.23238281 3.8353125 -6.23238281 3.8353125 -7.6171875 4.6875 C-10 6 -10 6 -12 6 C-12.33 4.68 -12.66 3.36 -13 2 C-4.6875 -1.5625 -4.6875 -1.5625 0 0 Z " fill="#E5E4E6" transform="translate(150,133)"/>
<path d="M0 0 C1.38619228 4.65720714 0.23308829 7.66979133 -2.02734375 11.94140625 C-2.99287332 13.64225015 -3.99375398 15.3229233 -5 17 C-5.66 17 -6.32 17 -7 17 C-5.49637741 13.21283842 -3.94512999 9.44754813 -2.375 5.6875 C-1.92898437 4.61886719 -1.48296875 3.55023438 -1.0234375 2.44921875 C-0.68570313 1.64097656 -0.34796875 0.83273438 0 0 Z " fill="#29585D" transform="translate(67,84)"/>
<path d="M0 0 C0.66 0 1.32 0 2 0 C2 0.66 2 1.32 2 2 C2.94875 2.061875 3.8975 2.12375 4.875 2.1875 C5.90625 2.455625 6.9375 2.72375 8 3 C9.375 5.5625 9.375 5.5625 10 8 C9.1646875 7.2265625 9.1646875 7.2265625 8.3125 6.4375 C6.10852826 4.77382387 6.10852826 4.77382387 3.5625 5.0625 C0.48273727 6.18924246 -1.55799996 7.83708568 -4 10 C-4 9.01 -4 8.02 -4 7 C-3.34 7 -2.68 7 -2 7 C-1.34 4.69 -0.68 2.38 0 0 Z " fill="#2C5257" transform="translate(96,64)"/>
<path d="M0 0 C3.95555858 4.72115057 5.13468481 7.55179118 5.0625 13.6875 C5.05347656 14.68136719 5.04445312 15.67523438 5.03515625 16.69921875 C5.02355469 17.45847656 5.01195312 18.21773437 5 19 C4.67 19 4.34 19 4 19 C3.93941406 18.30132812 3.87882813 17.60265625 3.81640625 16.8828125 C3.73261719 15.97273438 3.64882812 15.06265625 3.5625 14.125 C3.48128906 13.22007813 3.40007812 12.31515625 3.31640625 11.3828125 C3.13010715 8.98889139 3.13010715 8.98889139 2 7 C-0.01669827 5.86649466 -0.01669827 5.86649466 -2 5 C-1.34 3.35 -0.68 1.7 0 0 Z " fill="#2E8A8D" transform="translate(170,88)"/>
<path d="M0 0 C3.74993479 -0.05811773 7.49975352 -0.09363593 11.25 -0.125 C12.84521484 -0.15013672 12.84521484 -0.15013672 14.47265625 -0.17578125 C16.00986328 -0.18544922 16.00986328 -0.18544922 17.578125 -0.1953125 C18.52075195 -0.20578613 19.46337891 -0.21625977 20.43457031 -0.22705078 C23.09951941 0.00880787 24.71863092 0.64338341 27 2 C26.34 2.66 25.68 3.32 25 4 C24.01 3.67 23.02 3.34 22 3 C22 2.34 22 1.68 22 1 C14.74 1 7.48 1 0 1 C0 0.67 0 0.34 0 0 Z " fill="#24B6BE" transform="translate(90,9)"/>
<path d="M0 0 C-0.33 0.66 -0.66 1.32 -1 2 C-3.50390625 2.4140625 -3.50390625 2.4140625 -6.5625 2.625 C-7.57441406 2.69976562 -8.58632812 2.77453125 -9.62890625 2.8515625 C-10.41136719 2.90054687 -11.19382812 2.94953125 -12 3 C-12 2.01 -12 1.02 -12 0 C-7.91556885 -1.53166168 -4.20544343 -0.63081652 0 0 Z " fill="#474C50" transform="translate(87,6)"/>
<path d="M0 0 C0.99 0 1.98 0 3 0 C3.36630156 3.93774177 3.30233203 5.56539771 1 8.875 C0.34 9.57625 -0.32 10.2775 -1 11 C-1.0270043 9.54176788 -1.04639787 8.08339325 -1.0625 6.625 C-1.07410156 5.81289062 -1.08570313 5.00078125 -1.09765625 4.1640625 C-1 2 -1 2 0 0 Z " fill="#4E4D50" transform="translate(192,82)"/>
<path d="M0 0 C0.33 0 0.66 0 1 0 C1.185625 1.2065625 1.185625 1.2065625 1.375 2.4375 C1.58125 3.283125 1.7875 4.12875 2 5 C2.66 5.33 3.32 5.66 4 6 C4 6.66 4 7.32 4 8 C5.2065625 8.433125 5.2065625 8.433125 6.4375 8.875 C9 10 9 10 10 12 C5.69235185 10.43358249 1.93828536 8.31663844 -2 6 C-1.125 1.125 -1.125 1.125 0 0 Z " fill="#36A4AC" transform="translate(48,170)"/>
<path d="M0 0 C0.33 0 0.66 0 1 0 C1.06058594 0.75925781 1.12117187 1.51851563 1.18359375 2.30078125 C1.26738281 3.29464844 1.35117188 4.28851563 1.4375 5.3125 C1.55931641 6.79169922 1.55931641 6.79169922 1.68359375 8.30078125 C1.91812559 11.09375599 1.91812559 11.09375599 3 14 C1.68 13.67 0.36 13.34 -1 13 C-1.2236337 11.58566794 -1.42826476 10.16832382 -1.625 8.75 C-1.74101563 7.96109375 -1.85703125 7.1721875 -1.9765625 6.359375 C-2.00319395 3.67847541 -1.36592084 2.27305911 0 0 Z " fill="#3D4949" transform="translate(8,112)"/>
<path d="M0 0 C2.97851562 0.53710938 2.97851562 0.53710938 5.95703125 1.07421875 C5.95703125 2.06421875 5.95703125 3.05421875 5.95703125 4.07421875 C2.32703125 3.74421875 -1.30296875 3.41421875 -5.04296875 3.07421875 C-2.04296875 0.07421875 -2.04296875 0.07421875 0 0 Z " fill="#394747" transform="translate(125.04296875,6.92578125)"/>
<path d="M0 0 C3.70488428 0.92622107 5.16604069 1.67210485 8 4 C7.67 4.99 7.34 5.98 7 7 C5.68 7.33 4.36 7.66 3 8 C2.01 5.36 1.02 2.72 0 0 Z " fill="#22A2A3" transform="translate(142,72)"/>
<path d="M0 0 C5.28 0 10.56 0 16 0 C16 0.33 16 0.66 16 1 C11.545 1.495 11.545 1.495 7 2 C7.33 2.66 7.66 3.32 8 4 C6.02 4 4.04 4 2 4 C2 3.34 2 2.68 2 2 C1.34 1.34 0.68 0.68 0 0 Z " fill="#409B9E" transform="translate(96,156)"/>
<path d="M0 0 C1.32 0.66 2.64 1.32 4 2 C4 2.99 4 3.98 4 5 C4.33 5.99 4.66 6.98 5 8 C2 8 2 8 0.25 6.8125 C-1 5 -1 5 -0.6875 2.3125 C-0.460625 1.549375 -0.23375 0.78625 0 0 Z " fill="#565356" transform="translate(166,31)"/>
<path d="M0 0 C0.66 0.33 1.32 0.66 2 1 C-3.25603094 5.47735969 -8.40677012 5.11174966 -15 5 C-15 4.67 -15 4.34 -15 4 C-14.16855469 3.79503906 -13.33710937 3.59007812 -12.48046875 3.37890625 C-11.39378906 3.10949219 -10.30710937 2.84007812 -9.1875 2.5625 C-7.56908203 2.16224609 -7.56908203 2.16224609 -5.91796875 1.75390625 C-3.9259157 1.23922588 -1.95188476 0.65062825 0 0 Z " fill="#29585F" transform="translate(131,187)"/>
<path d="M0 0 C-0.25 2.375 -0.25 2.375 -1 5 C-3.0625 6.3125 -3.0625 6.3125 -5 7 C-5.33 5.02 -5.66 3.04 -6 1 C-3 0 -3 0 0 0 Z " fill="#096163" transform="translate(129,151)"/>
<path d="M0 0 C1.890625 0.1953125 1.890625 0.1953125 4 1 C5.046875 3.1796875 5.046875 3.1796875 5.75 5.875 C6.11351562 7.20144531 6.11351562 7.20144531 6.484375 8.5546875 C7 11 7 11 7 14 C4.51169497 11.51169497 3.69174309 9.1322066 2.375 5.875 C1.92898437 4.77929688 1.48296875 3.68359375 1.0234375 2.5546875 C0.68570313 1.71164063 0.34796875 0.86859375 0 0 Z " fill="#2DA2A9" transform="translate(155,132)"/>
<path d="M0 0 C0 4.07746885 -1.52068051 5.83198065 -4 9 C-6.25 9.875 -6.25 9.875 -8 10 C-6.34908222 5.70761377 -3.26245434 3.1206085 0 0 Z " fill="#2FABB4" transform="translate(38,32)"/>
<path d="M0 0 C2.5 1.3125 2.5 1.3125 5 3 C5 3.99 5 4.98 5 6 C2.03 5.505 2.03 5.505 -1 5 C-0.67 3.35 -0.34 1.7 0 0 Z " fill="#384B4B" transform="translate(47,176)"/>
<path d="M0 0 C1.07033136 3.21822604 0.95795392 5.03142433 -0.25 8.1875 C-0.62898438 9.22970703 -0.62898438 9.22970703 -1.015625 10.29296875 C-2 12 -2 12 -5 13 C-3.78184562 8.31479085 -2.30440013 4.29456388 0 0 Z " fill="#33A3AB" transform="translate(89,80)"/>
<path d="M0 0 C-2.475 3.465 -2.475 3.465 -5 7 C-7 4 -7 4 -6.75 1.875 C-5.2584078 -1.8539805 -3.73264342 -0.93316085 0 0 Z " fill="#31B5BE" transform="translate(147,43)"/>
<path d="M0 0 C3.63 0 7.26 0 11 0 C8 3 8 3 5.95703125 3.29296875 C3.97135417 3.1953125 1.98567708 3.09765625 0 3 C0 2.01 0 1.02 0 0 Z " fill="#0D7C81" transform="translate(115,164)"/>
<path d="M0 0 C0.33 0 0.66 0 1 0 C0.50269348 4.97306516 -0.55302334 8.63799813 -3 13 C-3.66 13 -4.32 13 -5 13 C-3.58192622 8.52761347 -1.88695626 4.28853694 0 0 Z " fill="#275758" transform="translate(43,136)"/>
<path d="M0 0 C0.33 0.66 0.66 1.32 1 2 C3.52733235 2.65555119 3.52733235 2.65555119 6 3 C6.33 3.99 6.66 4.98 7 6 C7.99 6.66 8.98 7.32 10 8 C4.25 7.125 4.25 7.125 2 6 C2 5.01 2 4.02 2 3 C1.34 3 0.68 3 0 3 C0 2.01 0 1.02 0 0 Z " fill="#15868F" transform="translate(158,84)"/>
<path d="M0 0 C0.66 0 1.32 0 2 0 C1.1875 2.9375 1.1875 2.9375 0 6 C-0.99 6.33 -1.98 6.66 -3 7 C-3.33 7.66 -3.66 8.32 -4 9 C-4.33 7.35 -4.66 5.7 -5 4 C-3.35 3.67 -1.7 3.34 0 3 C0 2.01 0 1.02 0 0 Z " fill="#26B2B8" transform="translate(69,76)"/>
<path d="M0 0 C1.75406653 0.39920135 3.50318982 0.82015666 5.25 1.25 C6.22453125 1.48203125 7.1990625 1.7140625 8.203125 1.953125 C11.31523411 3.11799266 12.84212456 4.51330545 15 7 C14.319375 6.690625 13.63875 6.38125 12.9375 6.0625 C9.94668548 4.84697633 9.94668548 4.84697633 6.375 4.625 C3 4 3 4 1.2890625 1.9609375 C0.86367187 1.31382813 0.43828125 0.66671875 0 0 Z " fill="#30494B" transform="translate(102,51)"/>
<path d="M0 0 C0.66 0 1.32 0 2 0 C2 1.65 2 3.3 2 5 C-0.64 5.99 -3.28 6.98 -6 8 C-6 7.01 -6 6.02 -6 5 C-4.35 5 -2.7 5 -1 5 C-0.67 3.35 -0.34 1.7 0 0 Z " fill="#35B9BD" transform="translate(157,31)"/>
<path d="M0 0 C0.66 0.33 1.32 0.66 2 1 C-0.86075176 5.07106981 -3.37810146 7.13157293 -8 9 C-8.99 9 -9.98 9 -11 9 C-9.948125 8.1646875 -9.948125 8.1646875 -8.875 7.3125 C-5.88655739 4.90875268 -2.94059762 2.46189568 0 0 Z " fill="#2FA8AF" transform="translate(50,22)"/>
<path d="M0 0 C0.33 0.99 0.66 1.98 1 3 C1.99 3.33 2.98 3.66 4 4 C2.02 5.32 0.04 6.64 -2 8 C-2.33 7.34 -2.66 6.68 -3 6 C-1.44444444 1.44444444 -1.44444444 1.44444444 0 0 Z " fill="#345758" transform="translate(44,21)"/>
<path d="M0 0 C0 0.99 0 1.98 0 3 C0.66 3.33 1.32 3.66 2 4 C-1.57644848 5.2380014 -4.33694766 4.74926071 -8 4 C-2.7826087 0 -2.7826087 0 0 0 Z " fill="#365358" transform="translate(142,183)"/>
<path d="M0 0 C3.3 0.33 6.6 0.66 10 1 C10.33 2.32 10.66 3.64 11 5 C9.53932801 4.54917531 8.08151968 4.08906463 6.625 3.625 C5.81289063 3.36976563 5.00078125 3.11453125 4.1640625 2.8515625 C2 2 2 2 0 0 Z " fill="#32AEB9" transform="translate(58,182)"/>
<path d="M0 0 C0.66 0 1.32 0 2 0 C2.22036864 3.85645121 1.60355101 6.49223216 0 10 C-0.66 9.67 -1.32 9.34 -2 9 C-1.125 2.25 -1.125 2.25 0 0 Z " fill="#414846" transform="translate(15,55)"/>
<path d="M0 0 C-0.99 0.495 -0.99 0.495 -2 1 C-2 1.66 -2 2.32 -2 3 C-3.65 3.33 -5.3 3.66 -7 4 C-7 2.68 -7 1.36 -7 0 C-4.3333581 -1.33332095 -2.83319697 -0.67102033 0 0 Z " fill="#3E4648" transform="translate(71,10)"/>
<path d="M0 0 C4.29 0.66 8.58 1.32 13 2 C13 2.33 13 2.66 13 3 C11.20841511 3.02696365 9.41671527 3.04637917 7.625 3.0625 C6.62726563 3.07410156 5.62953125 3.08570313 4.6015625 3.09765625 C2 3 2 3 0 2 C0 1.34 0 0.68 0 0 Z " fill="#285154" transform="translate(75,190)"/>
<path d="M0 0 C0.33 0 0.66 0 1 0 C1 2.31 1 4.62 1 7 C0.01 7.33 -0.98 7.66 -2 8 C-2.33 8.99 -2.66 9.98 -3 11 C-3.33 10.34 -3.66 9.68 -4 9 C-3.22265625 6.8359375 -3.22265625 6.8359375 -2.0625 4.375 C-1.68222656 3.55773437 -1.30195312 2.74046875 -0.91015625 1.8984375 C-0.60980469 1.27195312 -0.30945312 0.64546875 0 0 Z " fill="#2A5557" transform="translate(51,119)"/>
<path d="M0 0 C4 2 4 2 5.3125 4.875 C6 8 6 8 5 12 C3.35 8.04 1.7 4.08 0 0 Z " fill="#24444B" transform="translate(145,154)"/>
<path d="M0 0 C1.28485596 5.13942384 0.22194431 6.37835584 -2 11 C-2.99 11 -3.98 11 -5 11 C-3.35 7.37 -1.7 3.74 0 0 Z " fill="#295658" transform="translate(37,149)"/>
<path d="M0 0 C0.103125 0.639375 0.20625 1.27875 0.3125 1.9375 C0.539375 2.618125 0.76625 3.29875 1 4 C1.99 4.33 2.98 4.66 4 5 C3.67 6.65 3.34 8.3 3 10 C1.68 9.01 0.36 8.02 -1 7 C-0.67 4.69 -0.34 2.38 0 0 Z " fill="#555657" transform="translate(189,120)"/>
<path d="M0 0 C2.52394612 3.12488567 4.39701907 6.31314387 6 10 C5.67 10.66 5.34 11.32 5 12 C2.26629955 9.63907689 1.08902355 7.43461272 0 4 C0 2.68 0 1.36 0 0 Z " fill="#2EADB7" transform="translate(130,75)"/>
<path d="M0 0 C0.66 0.33 1.32 0.66 2 1 C1.34 2.98 0.68 4.96 0 7 C-1.65 7 -3.3 7 -5 7 C-3.47793991 4.37098712 -2.15634036 2.15634036 0 0 Z " fill="#CFF6F7" transform="translate(148,41)"/>
<path d="M0 0 C-0.33 0.99 -0.66 1.98 -1 3 C-2.32303717 3.3721042 -3.65737935 3.70630173 -5 4 C-5.33 4.66 -5.66 5.32 -6 6 C-7.65 6 -9.3 6 -11 6 C-8.24029211 2.78034079 -4.3526723 0 0 0 Z " fill="#33A2A8" transform="translate(63,16)"/>
<path d="M0 0 C2.9375 0.8125 2.9375 0.8125 6 2 C6.33 2.99 6.66 3.98 7 5 C3.31245243 4.50168276 1.39509338 3.89932357 -1 1 C-0.67 0.67 -0.34 0.34 0 0 Z " fill="#443F47" transform="translate(53,182)"/>
<path d="M0 0 C1 3 1 3 0.0625 5.1875 C-0.4634375 6.0846875 -0.4634375 6.0846875 -1 7 C-2.32 7 -3.64 7 -5 7 C-5 5.68 -5 4.36 -5 3 C-4.360625 2.87625 -3.72125 2.7525 -3.0625 2.625 C-2.0415625 2.315625 -2.0415625 2.315625 -1 2 C-0.67 1.34 -0.34 0.68 0 0 Z " fill="#2CADB3" transform="translate(35,151)"/>
<path d="M0 0 C3.40424844 1.13474948 4.21653709 1.96811304 6 5 C5.67 5.99 5.34 6.98 5 8 C4.01 7.67 3.02 7.34 2 7 C1.67 6.34 1.34 5.68 1 5 C1.33 4.34 1.66 3.68 2 3 C1.34 3 0.68 3 0 3 C0 2.01 0 1.02 0 0 Z " fill="#14A8B2" transform="translate(88,151)"/>
<path d="M0 0 C1.625 1.5 1.625 1.5 3 3 C2.67 3.99 2.34 4.98 2 6 C1.01 5.34 0.02 4.68 -1 4 C-3.62531524 3.83286431 -3.62531524 3.83286431 -6 4 C-2.25 0 -2.25 0 0 0 Z " fill="#20797F" transform="translate(134,144)"/>
<path d="M0 0 C0.99 0 1.98 0 3 0 C4.58706842 4.1077065 5.10191901 5.59232396 4 10 C2.68 6.7 1.36 3.4 0 0 Z " fill="#32A6AF" transform="translate(144,108)"/>
<path d="M0 0 C0.33 1.32 0.66 2.64 1 4 C0.01 4 -0.98 4 -2 4 C-2 5.65 -2 7.3 -2 9 C-2.99 9 -3.98 9 -5 9 C-3.90931332 5.22454612 -3.0916909 2.52956528 0 0 Z " fill="#2A565C" transform="translate(81,59)"/>
<path d="M0 0 C6.47556391 0.61090226 6.47556391 0.61090226 8.9375 2.4375 C10 4 10 4 10 6 C6.00499382 4.6302836 3.19990508 2.74277578 0 0 Z " fill="#24575A" transform="translate(143,18)"/>
<path d="M0 0 C0.66 0.66 1.32 1.32 2 2 C2.99 2.33 3.98 2.66 5 3 C2.69 3.66 0.38 4.32 -2 5 C-2.66 3.68 -3.32 2.36 -4 1 C-2 0 -2 0 0 0 Z " fill="#3C585A" transform="translate(63,11)"/>
<path d="M0 0 C5.95703125 -0.390625 5.95703125 -0.390625 8 0 C8.99 1.32 9.98 2.64 11 4 C7.37 3.01 3.74 2.02 0 1 C0 0.67 0 0.34 0 0 Z " fill="#30A5AA" transform="translate(69,187)"/>
<path d="M0 0 C-2.39509338 2.89932357 -4.31245243 3.50168276 -8 4 C-8 3.01 -8 2.02 -8 1 C-5.07175348 0.02391783 -3.04386724 -0.08226668 0 0 Z " fill="#393F41" transform="translate(150,182)"/>
<path d="M0 0 C2.83374881 3.20336822 3.5205537 5.78087253 4 10 C3.01 9.67 2.02 9.34 1 9 C0.67 6.03 0.34 3.06 0 0 Z " fill="#285252" transform="translate(146,114)"/>
<path d="M0 0 C2.475 0.99 2.475 0.99 5 2 C5 2.66 5 3.32 5 4 C5.99 4.33 6.98 4.66 8 5 C7.67 6.32 7.34 7.64 7 9 C5.83037314 7.69013727 4.66437056 6.3770374 3.5 5.0625 C2.8503125 4.33160156 2.200625 3.60070313 1.53125 2.84765625 C0 1 0 1 0 0 Z " fill="#31A3A9" transform="translate(115,55)"/>
<path d="M0 0 C1.134375 0.020625 2.26875 0.04125 3.4375 0.0625 C3.4375 0.7225 3.4375 1.3825 3.4375 2.0625 C1.4575 2.7225 -0.5225 3.3825 -2.5625 4.0625 C-2.5625 3.4025 -2.5625 2.7425 -2.5625 2.0625 C-3.2225 1.7325 -3.8825 1.4025 -4.5625 1.0625 C-3.5625 0.0625 -3.5625 0.0625 0 0 Z " fill="#3E494A" transform="translate(136.5625,186.9375)"/>
<path d="M0 0 C0.66 0 1.32 0 2 0 C2.99 2.97 3.98 5.94 5 9 C4.01 8.34 3.02 7.68 2 7 C2 6.01 2 5.02 2 4 C1.01 3.67 0.02 3.34 -1 3 C-0.67 2.01 -0.34 1.02 0 0 Z " fill="#2A8E94" transform="translate(145,157)"/>
<path d="M0 0 C2.0625 2.3125 2.0625 2.3125 4 5 C3.67 5.99 3.34 6.98 3 8 C2.34 8 1.68 8 1 8 C-0.42944945 5.64561267 -1.08661261 4.51967567 -0.625 1.75 C-0.41875 1.1725 -0.2125 0.595 0 0 Z " fill="#1BA3B0" transform="translate(170,99)"/>
<path d="M0 0 C2.31 0.66 4.62 1.32 7 2 C6.67 2.66 6.34 3.32 6 4 C3.69 3.67 1.38 3.34 -1 3 C-0.67 2.01 -0.34 1.02 0 0 Z " fill="#4B484E" transform="translate(132,9)"/>
<path d="M0 0 C0.66 0 1.32 0 2 0 C1.39009109 3.55780196 0.4216319 6.6828589 -1 10 C-1.33 10 -1.66 10 -2 10 C-1.54177532 6.53058454 -1.10868317 3.32604951 0 0 Z " fill="#2A5257" transform="translate(47,166)"/>
<path d="M0 0 C3.44216672 2.6598561 3.99504674 5.90288286 5 10 C4.34 10 3.68 10 3 10 C0.96564469 6.27034861 0 4.33094958 0 0 Z " fill="#2A565C" transform="translate(125,69)"/>
<path d="M0 0 C1.32 0.66 2.64 1.32 4 2 C2.515 4.475 2.515 4.475 1 7 C0.34 6.67 -0.32 6.34 -1 6 C-0.67 4.02 -0.34 2.04 0 0 Z " fill="#3F4D52" transform="translate(30,160)"/>
<path d="M0 0 C2.96404505 2.80804268 5.44499019 5.18315774 7 9 C3.17475764 7.549046 1.80909034 5.61818068 0 2 C0 1.34 0 0.68 0 0 Z " fill="#215D62" transform="translate(23,151)"/>
<path d="M0 0 C0.33 0.99 0.66 1.98 1 3 C0.34 3 -0.32 3 -1 3 C-1 3.99 -1 4.98 -1 6 C-1.99 6.33 -2.98 6.66 -4 7 C-4.33 6.01 -4.66 5.02 -5 4 C-3.35 2.68 -1.7 1.36 0 0 Z " fill="#3A8A8E" transform="translate(138,139)"/>
<path d="M0 0 C0.99 0.66 1.98 1.32 3 2 C2.34 3.65 1.68 5.3 1 7 C0.67 5.68 0.34 4.36 0 3 C-0.66 3 -1.32 3 -2 3 C-2 2.34 -2 1.68 -2 1 C-1.34 0.67 -0.68 0.34 0 0 Z " fill="#2DADB3" transform="translate(172,106)"/>
<path d="M0 0 C0.66 0 1.32 0 2 0 C1.45773019 3.79588866 -0.20127563 5.47211993 -3 8 C-2.45276317 4.62537285 -1.9451 2.91765 0 0 Z " fill="#245756" transform="translate(28,39)"/>
<path d="M0 0 C0.33 0.99 0.66 1.98 1 3 C0.67 3.66 0.34 4.32 0 5 C-1.65 5 -3.3 5 -5 5 C-3.35 3.35 -1.7 1.7 0 0 Z " fill="#454646" transform="translate(41,24)"/>
</g></svg>